<mxfile host="app.diagrams.net" modified="2020-09-27T03:34:05.737Z" agent="5.0 (Windows NT 10.0; Win64; x64) AppleWebKit/537.36 (KHTML, like Gecko) Chrome/85.0.4183.121 Safari/537.36" etag="FpU8KUBo9T8txOa0idMP" version="13.7.5" type="github">
  <diagram id="HwpDM5hgTIQFhktEImVd" name="Page-1">
    <mxGraphModel dx="868" dy="450" grid="1" gridSize="10" guides="1" tooltips="1" connect="1" arrows="1" fold="1" page="1" pageScale="1" pageWidth="827" pageHeight="1169" math="0" shadow="0">
      <root>
        <mxCell id="0" />
        <mxCell id="1" parent="0" />
        <mxCell id="AxYUimQPgfkUN7aq3H9J-3" style="edgeStyle=orthogonalEdgeStyle;rounded=0;orthogonalLoop=1;jettySize=auto;html=1;entryX=0;entryY=0.5;entryDx=0;entryDy=0;" edge="1" parent="1" source="AxYUimQPgfkUN7aq3H9J-1" target="AxYUimQPgfkUN7aq3H9J-2">
          <mxGeometry relative="1" as="geometry" />
        </mxCell>
        <mxCell id="AxYUimQPgfkUN7aq3H9J-5" style="edgeStyle=orthogonalEdgeStyle;rounded=0;orthogonalLoop=1;jettySize=auto;html=1;entryX=0.5;entryY=0;entryDx=0;entryDy=0;" edge="1" parent="1" source="AxYUimQPgfkUN7aq3H9J-1" target="AxYUimQPgfkUN7aq3H9J-4">
          <mxGeometry relative="1" as="geometry" />
        </mxCell>
        <mxCell id="AxYUimQPgfkUN7aq3H9J-1" value="Setup" style="rounded=1;whiteSpace=wrap;html=1;" vertex="1" parent="1">
          <mxGeometry x="140" y="100" width="120" height="60" as="geometry" />
        </mxCell>
        <mxCell id="AxYUimQPgfkUN7aq3H9J-2" value="Agregar 6 leds" style="rounded=1;whiteSpace=wrap;html=1;" vertex="1" parent="1">
          <mxGeometry x="390" y="100" width="120" height="60" as="geometry" />
        </mxCell>
        <mxCell id="AxYUimQPgfkUN7aq3H9J-9" style="edgeStyle=orthogonalEdgeStyle;rounded=0;orthogonalLoop=1;jettySize=auto;html=1;entryX=0.5;entryY=0;entryDx=0;entryDy=0;" edge="1" parent="1" source="AxYUimQPgfkUN7aq3H9J-4" target="AxYUimQPgfkUN7aq3H9J-7">
          <mxGeometry relative="1" as="geometry" />
        </mxCell>
        <mxCell id="AxYUimQPgfkUN7aq3H9J-4" value="loop" style="rounded=1;whiteSpace=wrap;html=1;" vertex="1" parent="1">
          <mxGeometry x="140" y="240" width="120" height="60" as="geometry" />
        </mxCell>
        <mxCell id="AxYUimQPgfkUN7aq3H9J-10" style="edgeStyle=orthogonalEdgeStyle;rounded=0;orthogonalLoop=1;jettySize=auto;html=1;entryX=0;entryY=0.5;entryDx=0;entryDy=0;" edge="1" parent="1" source="AxYUimQPgfkUN7aq3H9J-7" target="AxYUimQPgfkUN7aq3H9J-8">
          <mxGeometry relative="1" as="geometry" />
        </mxCell>
        <mxCell id="AxYUimQPgfkUN7aq3H9J-13" style="edgeStyle=orthogonalEdgeStyle;rounded=0;orthogonalLoop=1;jettySize=auto;html=1;entryX=0.5;entryY=0;entryDx=0;entryDy=0;" edge="1" parent="1" source="AxYUimQPgfkUN7aq3H9J-7" target="AxYUimQPgfkUN7aq3H9J-11">
          <mxGeometry relative="1" as="geometry" />
        </mxCell>
        <mxCell id="AxYUimQPgfkUN7aq3H9J-7" value="Encender luz roja semaforo 1" style="rounded=1;whiteSpace=wrap;html=1;" vertex="1" parent="1">
          <mxGeometry x="140" y="360" width="120" height="60" as="geometry" />
        </mxCell>
        <mxCell id="AxYUimQPgfkUN7aq3H9J-8" value="Encender luz verde semaforo 2" style="rounded=1;whiteSpace=wrap;html=1;" vertex="1" parent="1">
          <mxGeometry x="390" y="360" width="120" height="60" as="geometry" />
        </mxCell>
        <mxCell id="AxYUimQPgfkUN7aq3H9J-14" style="edgeStyle=orthogonalEdgeStyle;rounded=0;orthogonalLoop=1;jettySize=auto;html=1;entryX=0.5;entryY=0;entryDx=0;entryDy=0;" edge="1" parent="1" source="AxYUimQPgfkUN7aq3H9J-11" target="AxYUimQPgfkUN7aq3H9J-12">
          <mxGeometry relative="1" as="geometry" />
        </mxCell>
        <mxCell id="AxYUimQPgfkUN7aq3H9J-16" style="edgeStyle=orthogonalEdgeStyle;rounded=0;orthogonalLoop=1;jettySize=auto;html=1;entryX=0;entryY=0.5;entryDx=0;entryDy=0;" edge="1" parent="1" source="AxYUimQPgfkUN7aq3H9J-11" target="AxYUimQPgfkUN7aq3H9J-15">
          <mxGeometry relative="1" as="geometry" />
        </mxCell>
        <mxCell id="AxYUimQPgfkUN7aq3H9J-11" value="Esperar 10 seg&amp;nbsp;" style="rounded=1;whiteSpace=wrap;html=1;" vertex="1" parent="1">
          <mxGeometry x="140" y="480" width="120" height="60" as="geometry" />
        </mxCell>
        <mxCell id="AxYUimQPgfkUN7aq3H9J-22" style="edgeStyle=orthogonalEdgeStyle;rounded=0;orthogonalLoop=1;jettySize=auto;html=1;entryX=0.5;entryY=0;entryDx=0;entryDy=0;" edge="1" parent="1" source="AxYUimQPgfkUN7aq3H9J-12" target="AxYUimQPgfkUN7aq3H9J-19">
          <mxGeometry relative="1" as="geometry" />
        </mxCell>
        <mxCell id="AxYUimQPgfkUN7aq3H9J-12" value="Se apaga" style="rounded=1;whiteSpace=wrap;html=1;" vertex="1" parent="1">
          <mxGeometry x="140" y="610" width="120" height="60" as="geometry" />
        </mxCell>
        <mxCell id="AxYUimQPgfkUN7aq3H9J-18" style="edgeStyle=orthogonalEdgeStyle;rounded=0;orthogonalLoop=1;jettySize=auto;html=1;entryX=0;entryY=0.5;entryDx=0;entryDy=0;" edge="1" parent="1" source="AxYUimQPgfkUN7aq3H9J-15" target="AxYUimQPgfkUN7aq3H9J-17">
          <mxGeometry relative="1" as="geometry" />
        </mxCell>
        <mxCell id="AxYUimQPgfkUN7aq3H9J-15" value="En el segundo 5" style="rounded=1;whiteSpace=wrap;html=1;" vertex="1" parent="1">
          <mxGeometry x="354" y="480" width="120" height="60" as="geometry" />
        </mxCell>
        <mxCell id="AxYUimQPgfkUN7aq3H9J-23" style="edgeStyle=orthogonalEdgeStyle;rounded=0;orthogonalLoop=1;jettySize=auto;html=1;" edge="1" parent="1" source="AxYUimQPgfkUN7aq3H9J-17" target="AxYUimQPgfkUN7aq3H9J-21">
          <mxGeometry relative="1" as="geometry">
            <Array as="points">
              <mxPoint x="640" y="640" />
              <mxPoint x="414" y="640" />
            </Array>
          </mxGeometry>
        </mxCell>
        <mxCell id="AxYUimQPgfkUN7aq3H9J-17" value="Apagar luz verde semaforo 2" style="rounded=1;whiteSpace=wrap;html=1;" vertex="1" parent="1">
          <mxGeometry x="580" y="480" width="120" height="60" as="geometry" />
        </mxCell>
        <mxCell id="AxYUimQPgfkUN7aq3H9J-24" style="edgeStyle=orthogonalEdgeStyle;rounded=0;orthogonalLoop=1;jettySize=auto;html=1;entryX=0;entryY=0.5;entryDx=0;entryDy=0;" edge="1" parent="1" source="AxYUimQPgfkUN7aq3H9J-19" target="AxYUimQPgfkUN7aq3H9J-21">
          <mxGeometry relative="1" as="geometry" />
        </mxCell>
        <mxCell id="AxYUimQPgfkUN7aq3H9J-19" value="Encender luz amarilla" style="rounded=1;whiteSpace=wrap;html=1;" vertex="1" parent="1">
          <mxGeometry x="140" y="740" width="120" height="60" as="geometry" />
        </mxCell>
        <mxCell id="AxYUimQPgfkUN7aq3H9J-26" style="edgeStyle=orthogonalEdgeStyle;rounded=0;orthogonalLoop=1;jettySize=auto;html=1;entryX=0;entryY=0.5;entryDx=0;entryDy=0;" edge="1" parent="1" source="AxYUimQPgfkUN7aq3H9J-21" target="AxYUimQPgfkUN7aq3H9J-25">
          <mxGeometry relative="1" as="geometry" />
        </mxCell>
        <mxCell id="AxYUimQPgfkUN7aq3H9J-21" value="Encender luz amarilla semaforo 2" style="rounded=1;whiteSpace=wrap;html=1;" vertex="1" parent="1">
          <mxGeometry x="354" y="740" width="120" height="60" as="geometry" />
        </mxCell>
        <mxCell id="AxYUimQPgfkUN7aq3H9J-28" style="edgeStyle=orthogonalEdgeStyle;rounded=0;orthogonalLoop=1;jettySize=auto;html=1;entryX=0.5;entryY=0;entryDx=0;entryDy=0;" edge="1" parent="1" source="AxYUimQPgfkUN7aq3H9J-25" target="AxYUimQPgfkUN7aq3H9J-27">
          <mxGeometry relative="1" as="geometry">
            <Array as="points">
              <mxPoint x="640" y="840" />
              <mxPoint x="410" y="840" />
            </Array>
          </mxGeometry>
        </mxCell>
        <mxCell id="AxYUimQPgfkUN7aq3H9J-25" value="Esperar 2 seg" style="rounded=1;whiteSpace=wrap;html=1;" vertex="1" parent="1">
          <mxGeometry x="580" y="740" width="120" height="60" as="geometry" />
        </mxCell>
        <mxCell id="AxYUimQPgfkUN7aq3H9J-33" style="edgeStyle=orthogonalEdgeStyle;rounded=0;orthogonalLoop=1;jettySize=auto;html=1;entryX=0.5;entryY=0;entryDx=0;entryDy=0;" edge="1" parent="1" source="AxYUimQPgfkUN7aq3H9J-27" target="AxYUimQPgfkUN7aq3H9J-29">
          <mxGeometry relative="1" as="geometry" />
        </mxCell>
        <mxCell id="AxYUimQPgfkUN7aq3H9J-27" value="Apagar luces amarillas" style="rounded=1;whiteSpace=wrap;html=1;" vertex="1" parent="1">
          <mxGeometry x="350" y="880" width="120" height="60" as="geometry" />
        </mxCell>
        <mxCell id="AxYUimQPgfkUN7aq3H9J-31" style="edgeStyle=orthogonalEdgeStyle;rounded=0;orthogonalLoop=1;jettySize=auto;html=1;entryX=0;entryY=0.5;entryDx=0;entryDy=0;" edge="1" parent="1" source="AxYUimQPgfkUN7aq3H9J-29" target="AxYUimQPgfkUN7aq3H9J-30">
          <mxGeometry relative="1" as="geometry" />
        </mxCell>
        <mxCell id="AxYUimQPgfkUN7aq3H9J-35" style="edgeStyle=orthogonalEdgeStyle;rounded=0;orthogonalLoop=1;jettySize=auto;html=1;entryX=0.5;entryY=0;entryDx=0;entryDy=0;" edge="1" parent="1" source="AxYUimQPgfkUN7aq3H9J-29" target="AxYUimQPgfkUN7aq3H9J-34">
          <mxGeometry relative="1" as="geometry" />
        </mxCell>
        <mxCell id="AxYUimQPgfkUN7aq3H9J-29" value="Encender luz verde" style="rounded=1;whiteSpace=wrap;html=1;" vertex="1" parent="1">
          <mxGeometry x="120" y="1000" width="120" height="60" as="geometry" />
        </mxCell>
        <mxCell id="AxYUimQPgfkUN7aq3H9J-37" style="edgeStyle=orthogonalEdgeStyle;rounded=0;orthogonalLoop=1;jettySize=auto;html=1;" edge="1" parent="1" source="AxYUimQPgfkUN7aq3H9J-30" target="AxYUimQPgfkUN7aq3H9J-36">
          <mxGeometry relative="1" as="geometry" />
        </mxCell>
        <mxCell id="AxYUimQPgfkUN7aq3H9J-30" value="Encender luz roja semaforo 2" style="rounded=1;whiteSpace=wrap;html=1;" vertex="1" parent="1">
          <mxGeometry x="350" y="1000" width="120" height="60" as="geometry" />
        </mxCell>
        <mxCell id="AxYUimQPgfkUN7aq3H9J-39" style="edgeStyle=orthogonalEdgeStyle;rounded=0;orthogonalLoop=1;jettySize=auto;html=1;" edge="1" parent="1" source="AxYUimQPgfkUN7aq3H9J-34" target="AxYUimQPgfkUN7aq3H9J-38">
          <mxGeometry relative="1" as="geometry" />
        </mxCell>
        <mxCell id="AxYUimQPgfkUN7aq3H9J-34" value="Esperar 5 seg" style="rounded=1;whiteSpace=wrap;html=1;" vertex="1" parent="1">
          <mxGeometry x="120" y="1150" width="120" height="60" as="geometry" />
        </mxCell>
        <mxCell id="AxYUimQPgfkUN7aq3H9J-40" style="edgeStyle=orthogonalEdgeStyle;rounded=0;orthogonalLoop=1;jettySize=auto;html=1;entryX=1.025;entryY=0.617;entryDx=0;entryDy=0;entryPerimeter=0;" edge="1" parent="1" source="AxYUimQPgfkUN7aq3H9J-36" target="AxYUimQPgfkUN7aq3H9J-38">
          <mxGeometry relative="1" as="geometry">
            <Array as="points">
              <mxPoint x="410" y="1300" />
              <mxPoint x="243" y="1300" />
            </Array>
          </mxGeometry>
        </mxCell>
        <mxCell id="AxYUimQPgfkUN7aq3H9J-36" value="Esperar 10 seg" style="rounded=1;whiteSpace=wrap;html=1;" vertex="1" parent="1">
          <mxGeometry x="350" y="1150" width="120" height="60" as="geometry" />
        </mxCell>
        <mxCell id="AxYUimQPgfkUN7aq3H9J-41" style="edgeStyle=orthogonalEdgeStyle;rounded=0;orthogonalLoop=1;jettySize=auto;html=1;entryX=0;entryY=0.25;entryDx=0;entryDy=0;" edge="1" parent="1" source="AxYUimQPgfkUN7aq3H9J-38" target="AxYUimQPgfkUN7aq3H9J-4">
          <mxGeometry relative="1" as="geometry">
            <Array as="points">
              <mxPoint x="60" y="1320" />
              <mxPoint x="60" y="255" />
            </Array>
          </mxGeometry>
        </mxCell>
        <mxCell id="AxYUimQPgfkUN7aq3H9J-38" value="apagar" style="rounded=1;whiteSpace=wrap;html=1;" vertex="1" parent="1">
          <mxGeometry x="120" y="1290" width="120" height="60" as="geometry" />
        </mxCell>
      </root>
    </mxGraphModel>
  </diagram>
</mxfile>
